<svg xmlns="http://www.w3.org/2000/svg" viewBox="0 0 64 64">
  <defs>
    <linearGradient id="g" x1="32" y1="7" x2="32" y2="59" gradientUnits="userSpaceOnUse">
      <stop stop-color="#FFF3B2"/><stop offset=".42" stop-color="#E2B85C"/><stop offset="1" stop-color="#9B5C19"/>
    </linearGradient>
  </defs>
  <rect width="64" height="64" rx="15" fill="#080A1A"/>
  <circle cx="32" cy="18" r="7" fill="url(#g)"/>
  <g stroke="url(#g)" stroke-linecap="round">
    <path d="M32 6v5M32 25v6M20 18h5M39 18h5M24 10l3 4M40 10l-3 4" stroke-width="2"/>
    <path d="M32 29c-8 6 8 9 0 14s7 7 0 15" stroke-width="4" fill="none"/>
    <path d="M24 34c6 2 10 2 16 0M22 43c8 3 12 3 20 0M26 52c5 2 7 2 12 0" stroke-width="1.5" opacity=".6"/>
  </g>
</svg>
